<svg xmlns="http://www.w3.org/2000/svg" viewBox="0 0 200 200" role="img" aria-hidden="true">
  <rect width="200" height="200" fill="#312e81" rx="22"/>
  <!-- brain with glasses -->
  <path d="M100 48 C60 48 42 88 48 118 C52 142 72 158 100 158 C128 158 148 142 152 118 C158 88 140 48 100 48 Z" fill="#c4b5fd" stroke="#7c3aed" stroke-width="3"/>
  <path d="M70 100 Q100 72 130 100" fill="none" stroke="#6d28d9" stroke-width="4" stroke-linecap="round"/>
  <rect x="58" y="92" width="84" height="22" rx="4" fill="none" stroke="#1e1b4b" stroke-width="4"/>
  <circle cx="78" cy="103" r="14" fill="#fff" stroke="#1e1b4b" stroke-width="2"/>
  <circle cx="122" cy="103" r="14" fill="#fff" stroke="#1e1b4b" stroke-width="2"/>
  <circle cx="80" cy="103" r="5" fill="#1e1b4b"/>
  <circle cx="124" cy="103" r="5" fill="#1e1b4b"/>
  <path d="M88 128 Q100 138 112 128" fill="none" stroke="#4c1d95" stroke-width="3" stroke-linecap="round"/>
  <text x="100" y="182" text-anchor="middle" fill="#fde68a" font-size="13" font-family="system-ui,sans-serif" font-weight="700">??? ????… ???????</text>
</svg>
